<svg width="64" height="64" viewBox="0 0 64 64" fill="none" xmlns="http://www.w3.org/2000/svg">
<g clip-path="url(#clip0_3183_28)">
<path d="M0 32C0 20.799 0 15.1984 2.17987 10.9202C4.09734 7.15695 7.15695 4.09734 10.9202 2.17987C15.1984 0 20.799 0 32 0C43.201 0 48.8016 0 53.0798 2.17987C56.8431 4.09734 59.9027 7.15695 61.8201 10.9202C64 15.1984 64 20.799 64 32C64 43.201 64 48.8016 61.8201 53.0798C59.9027 56.8431 56.8431 59.9027 53.0798 61.8201C48.8016 64 43.201 64 32 64C20.799 64 15.1984 64 10.9202 61.8201C7.15695 59.9027 4.09734 56.8431 2.17987 53.0798C0 48.8016 0 43.201 0 32Z" fill="#4338CA"/>
<path d="M35.3235 42.02V22.42H39.9715V30.778L46.6215 22.42H52.4175L45.1655 31.422L53.3555 42.02H47.3775L42.0995 34.936L39.9715 37.358V42.02H35.3235Z" fill="#FDFCF9"/>
<path d="M21.458 42.44C19.9553 42.44 18.5647 42.1833 17.286 41.67C16.0167 41.1473 14.9107 40.424 13.968 39.5C13.0253 38.576 12.2927 37.4933 11.77 36.252C11.2567 35.0107 11 33.6667 11 32.22C11 30.764 11.2567 29.4153 11.77 28.174C12.2927 26.9327 13.0253 25.85 13.968 24.926C14.9107 24.002 16.0167 23.2833 17.286 22.77C18.5647 22.2567 19.9553 22 21.458 22C22.97 22 24.3607 22.2613 25.63 22.784C26.8993 23.3067 28.0053 24.0347 28.948 24.968C29.8907 25.9013 30.6187 26.9887 31.132 28.23C31.6547 29.462 31.916 30.792 31.916 32.22C31.916 33.6667 31.6547 35.0107 31.132 36.252C30.6187 37.4933 29.8907 38.576 28.948 39.5C28.0053 40.424 26.8993 41.1473 25.63 41.67C24.3607 42.1833 22.97 42.44 21.458 42.44ZM21.458 38.072C22.27 38.072 23.012 37.9367 23.684 37.666C24.3653 37.3953 24.958 37.0033 25.462 36.49C25.966 35.9767 26.3533 35.3607 26.624 34.642C26.904 33.914 27.044 33.1067 27.044 32.22C27.044 31.0253 26.8013 29.9893 26.316 29.112C25.84 28.2347 25.1773 27.558 24.328 27.082C23.488 26.5967 22.5313 26.354 21.458 26.354C20.6553 26.354 19.9133 26.494 19.232 26.774C18.5507 27.0447 17.958 27.4367 17.454 27.95C16.9593 28.4633 16.572 29.0793 16.292 29.798C16.012 30.5167 15.872 31.324 15.872 32.22C15.872 33.4053 16.1147 34.4367 16.6 35.314C17.0853 36.1913 17.748 36.8727 18.588 37.358C19.4373 37.834 20.394 38.072 21.458 38.072Z" fill="#FDFCF9"/>
</g>
<defs>
<clipPath id="clip0_3183_28">
<rect width="64" height="64" fill="white"/>
</clipPath>
</defs>
</svg>
